<!--version="1.0" encoding="utf-8"--><svg xmlns="http://www.w3.org/2000/svg" version="1.1" baseProfile="tiny" width="1000" height="1000" viewBox="0 0 1000 1000"><g><g stroke="#000000" stroke-width=".98" fill="#FFFFFF"><path d="m442.66 696.17l-25.74.09.18 1.72.06 1.66.33 6.79.2 5.23-.09 3.54.41 3.55.94 3.4 1.33 3.42.87 1.94 1.99 3.56 4.24 5.13 4.3 5.19 3.49 3.45 2.94 3.49 1.39 1.86 1.23 3.26 2.12-.03-.19-57.25z"/><path d="m442.44 633.45l-11.2-.09-2.2.81-1.36.98-1.22 1.83-.88 1.71-.87 1.88-.43 1.82.81 5.11.56 3.44.02 1.79-.24 3.53-.62 1.72-1.96 3.46-2.3 3.59-2.9 5.17-1.64 3.52-1.41 3.41-1.24 5.05 0 1.76.28 1.78.69 1.65 1.78 5.12.7 2.73.11 1.04 25.74-.09-.22-62.72z"/><path d="m416.7 353.68l-44.35.15.22 49.87-.78 6.04 0 0-.81 34.01 35-.06 1.22 1.74 3.24 2.19 6.64.05-.38-93.99z"/><path d="m463.62 353.52l-44.25.15.28 82.83 44.25-.15-.28-82.83z"/><path d="m463.9 436.35l-44.25.15.05 14.25 7.95 2.04 5.21 1.56 2.05 1.13 2.54 1.87 1.41 1.61 2.58 3.16 1.69 1.96.72 1.71.48 3.38.26 5.02-.63 5.18-1.63 9.43-.37 2.91-.48 6.33-.02 7.52.1 5.14 1.72 4.93-1.75 1.98-5.42 5.18-4.11 5.29-1.55 3.1-.59 1.95-.21 1.07 10.58.4 3.92-3.21 3.46-3.65 2.79-1.63 1.17-1.47 2.95-.47 1.24-1.48 1.81-2.75 2.53-5.04.22-1.12.08-3.13 1.01-1.55.89-1.86.85-1.07.98-.73-.23-69.09z"/><path d="m508.15 436.2l-44.25.15.23 69.09.69-.79 5.45-7.46 3.58-5.49 2.48-3.98 1.38-4.84 1.45-3.78 3.42-10.49 1.46-3.09 5.35-3.69 18.85-.07-.09-25.56z"/><path d="m507.87 353.37l-44.25.15.28 82.83 44.25-.15-.28-82.83z"/><path d="m416.31 268.08l-44.25.15.28 82.83 44.25-.15-.28-82.83z"/><path d="m463.33 267.92l-44.25.15.28 82.84 44.25-.15-.28-82.84z"/><path d="m507.58 267.77l-44.25.15.28 82.84 9.95-.04-4.33-4.59-1.22-2.11-.95-3.02-.35-2.3-.11-3.4.32-2.39.57-2.32 1.66-4.33 1.08-1.49 1.09-1.31 1.75-.92 2.92-1.08 6.37-1.12 1.64-.45 6.76.11 2.4.35 2.55 1.07 3.79 1.72.92 1.02.68 1.39.61 1.08.41 1.81.26 1.13.43.86.59 1.13.29 2.97.72.97.43 1.02-.01 1.95-.65 2.12-.21 1.83.03 1.45-.86 2.23-2.3 4.25 7.02-.11-.28-82.47z"/><path d="m507.52 251.08l-6.94.02 0 1.44-37.31.12.06 15.26 44.25-.15-.06-16.69z"/><path d="m463.27 252.66l-5.27.05 0-1.48-21.79.08-.02-.71-17.17.05.06 17.42 44.25-.15-.06-15.26z"/><path d="m416.24 247.73l-8.09-1.93-13.87-4.02-7.47-3.71-5.05-3.5-9.85-9.49.15 43.15 44.25-.15-.07-20.35z"/><path d="m352.9 273.98l6.02-4.05 2.44-.87 0-.79-27.21.1-1.76 12.11-1.35 7.13-2.3 8.66-3.59 11.82-1.32 6.61-.29 5.02 6.39.2 2.61-8.34 3.63-12.95 3.86-11.43 2.38-3.21 4.3-4.43 6.19-5.58z"/><path d="m371.91 225.08l-6.55-5.48-3.8-2.62-4.72-2.71-11.92-6.6-3.66-3.2-2.31-1.79-2.92-3.43-3.21-3.59-2.6-3.57-2.67-.01.19 55.88 4.18 3.32 1.72 1.41 1.78 1.91.36 1.83-.4 4.36-1.23 7.58 37.91-.14-.15-43.15z"/><path d="m294.8 155.62l-5.01-5.05-2.16-1.92-3.59-2.56-3.67-2.14.14 41.76 42.76-.15-28.47-29.94z"/><path d="m325.11 187.27l-1.84-1.71-42.76.15.16 47.6 35.05-.27 1.16 6.1.06 3.54.86 2.13 3.18 1.49 4.49-.1-.2-21.3-.16-37.63z"/><path d="m280.51 185.71l-44.25.15.19 55.83 5.32-.01 9.79-4.39 8.32-3.13 1.99-.78 18.8-.07-.16-47.6z"/><path d="m280.37 143.95l-5.86-3.41-12.39-7.25-6.35-3.36-14.29-7.07-3.99-.05-.42 2.87 1.25 4.03 1.04 2.85.66 4.71.31 3.63-.41 5.12-3.75 12.04.01 3.98.08 23.82 44.25-.15-.14-41.76z"/><path d="m233.91 161.02l-2.66.04-9.82 10.96-4.85 5.55-7.71 8.38 24.63-.08.41-24.85z"/><path d="m233.5 185.87l-24.63.09-19.63.06.26 74.92 4-1.8 13.4-7.11 9.5-3.2 17.29-5.31-.19-57.65z"/><path d="m215.22 124.35l8.43-4.06 0 0 0 0 0 0 1.29-3.31-7.23-4.85 0 0-28.71.38 0 0 0 0 0 0 0 0 .24 73.51 7.37-.03-2.31-3.46-.24-1.04-.16-7.08-.23-2.42-.51-5.39-.22-.38-1.21-1.06.02-1.42.8-2.92 0 0 1.63-5.7.39-1.44 1.24-4.25 0 0 0 0 .69-1.24 2.01-5.09.51-2.07 1.25-3.03 3.29-5.64 3.09-3.02 2.86-1.78 5.71-3.21z"/><path d="m188.98 106.7l-17.19.31-6.52 1.33-11.4 2.43-9.12 1.88.24 73.52 44.25-.15-.26-79.32z"/><path d="m189.24 186.02l-44.25.15.28 82.83 39.06-.13.05-4.25 2.59-1.91 2.53-1.77-.26-74.92z"/><path d="m180.58 314.03l.4-2.07 2.11-11.25.29-1.77 1.65-5.8-.3-9.35-1.28-1.16.05-1.02.51-.58.83-5.29-.62-3.48.11-3.39-39.06.13.29 82.83 46.2-.16-3.28-4.7-1.73-2.11-.98-2.02-.68-3.3-1.93-10.42-1.03-8.68-1.11-3.29-.44-3.12z"/><path d="m142.51 269.01l-43.73.15.11 4.16-.18 3.43-.17 1.22-1.55 7.78-3.55 14.28-.69 3.92-.97 7.97-.23 6.47 0 .62 2.83 3.88 5.76 5.14 7.09 5.4 5.77 4.8 9.41 13.68 20.38-.07-.28-82.83z"/><path d="m97.98 186.32l-44.25.15.17 51.58.25 15.51 3.62-.01 5.09-3.26 4.05-2.22 1.93-1.37 1.87-.84 2.7-.54 2.54.02 2.66.16 1.8.73 1.1.92 2.08 1.3 3.98 3.8 6.75 8.29 3 4.98 1.45 2.55-.79-81.75z"/><path d="m142.23 186.18l-44.25.14.8 82.84 43.73-.15-.28-82.83z"/><path d="m141.99 114.57l-6.06.02-22.94 4.62-15.23 3.37.22 63.74 44.25-.14-.24-71.61z"/><path d="m97.76 122.58l-8.96 2.83-4.55 1.96-30.66 17.46.14 41.64 44.25-.15-.22-63.74z"/><path d="m50.84 149.22l-3.81.01-7.8 5.33-7.31 5.6-6.34 5-3.17 2.13-9.38 5.36-8.03 4.96-2.58 2-1.85 2.04-.57 1.34.08 1.15.35 1.27 10.46 18.35 31.32 51.04 9.1-.13-.47-105.45z"/><path d="m372.35 353.83l-51.57.17-1.39 5.86-1.09 3.45-.83 18.62 10.72-.08.01 1.78 5.67 5.38 7.82-.14 6.66-4.12 5.64 0 .47 1.14 5 6.25 7.24 10.18 5.09 7.42.73-6.09-.17-49.82z"/><path d="m933.72 518.03l-1.35-11.98-2.01-7.96-3.25-13.35-1.71-5.66-1.09-2.17-1.69-1.89-2.25-1.9.15 44.51.28 82.83 2.63-.01 5.01-26.33 3.87-19.51 1.55-10.35.18-13.87-.32-12.36z"/><path d="m920.52 517.63l-44.25.15.28 82.83 44.25-.15-.28-82.83z"/><path d="m920.37 473.12l-4.05-3.41-10.47-13.61-4.77-7.61-4.58-13.61-20.52.07.29 82.83 44.25-.15-.15-44.51z"/><path d="m873.22 434.96l-44.25.15.28 82.83 44.25-.15-.28-82.83z"/><path d="m873.5 517.79l-44.25.15.28 82.83 44.25-.15-.28-82.83z"/><path d="m829.25 517.94l-44.25.15.28 82.83 44.25-.15-.28-82.83z"/><path d="m828.97 435.11l-44.25.15.28 82.83 44.25-.15-.28-82.83z"/><path d="m781.95 435.27l-44.25.15.28 82.83 44.25-.15-.28-82.83z"/><path d="m782.23 518.1l-44.25.15.28 82.83 44.26-.15-.29-82.83z"/><path d="m737.98 518.25l-44.25.15.28 82.83 44.25-.15-.28-82.83z"/><path d="m737.7 435.42l-44.25.15.28 82.83 44.25-.15-.28-82.83z"/><path d="m690.68 435.58l-44.25.15.19 54.03-5.11-.04 2.85 3.48 3.64 3.19 4.96 5.06 8.8 13.97 29.19-.26-.27-79.58z"/><path d="m646.43 435.73l-44.25.15.09 53.55 44.35.33-.19-54.03z"/><path d="m599.42 435.89l-44.25.15.11 33.06-10.81.03 0 1.52 11.2 6.39 0 0 15.08 10.69 0 0 0 0 28.74-.2-.07-51.64z"/><path d="m555.17 436.04l0 0-44.26.15.11 33.06 44.25-.15-.1-33.06z"/><path d="m554.88 353.21l-44.25.15.28 82.83 44.26-.15-.29-82.83z"/><path d="m599.13 353.06l-44.25.15.29 82.83 44.25-.15-.29-82.83z"/><path d="m646.15 352.9l-44.25.15.28 82.83 44.25-.15-.28-82.83z"/><path d="m690.4 352.75l-44.25.15.28 82.83 44.25-.15-.28-82.83z"/><path d="m737.42 352.59l-44.25.15.28 82.83 44.25-.15-.28-82.83z"/><path d="m781.67 352.44l-44.25.15.28 82.83 44.25-.15-.28-82.83z"/><path d="m829.26 361.3l0 0 8.73-.03-5.18-5.73-3.53-.05.02-3.21-44.87.15.29 82.83 44.25-.15.29-73.81z"/><path d="m807.29 339.09l-6.01-3.5-12.96-8.64-3.97.02.07 22.7 35.16-.12 2.94-.07-1.86-1.56-3.56-2.76-9.81-6.07z"/><path d="m781.56 321.76l-11.21-5.1-8.66-1.86-8.7-3.42-5.46-1.55-5.84-2.3-4.43.01.04 11.37.11 30.92 44.25-.15-.1-27.92z"/><path d="m737.3 318.91l-44.31.15.17 30.92 44.25-.15-.11-30.92z"/><path d="m690.65 319.22l-16.43-6.28-5.2-1.27-23.01.33.13 38.14 44.25-.15.26-30.77z"/><path d="m639.62 276.67l-9.95-2.45-6.29-2.6-5.84-.05-3.27-2.52-4.44-2.51-8.22.07.28 83.68 44.25-.15-.13-38.14-.01-4.78-1.03-1.95-2.06-1.52-2.54.02-.01-.41-.74-26.69z"/><path d="m598.84 267.46l-44.25.15.28 82.84 44.26-.15-.29-82.84z"/><path d="m554.59 267.61l-44.25.15.28 82.84 44.25-.15-.28-82.84z"/><path d="m583.73 260.44l-11.9-2.89-17.28-3.03.04 13.09 44.25-.15-.02-3.7-4.52-1.26-10.57-2.06z"/><path d="m554.55 254.52l-9.6-2.21-8.23-2.12-26.44.09.06 17.48 44.25-.15-.04-13.09z"/><path d="m484.04 667.33l-38.72.13.22 62.62 38.72-.13-.22-62.62z"/><path d="m484.26 729.95l-38.72.13.09 27.65 19.51 26.86-.39 8.05 19.72-.07-.21-62.62z"/><path d="m525.74 729.81l-38.72.13.22 62.62 38.72-.13-.22-62.62z"/><path d="m525.53 667.19l-38.72.13.21 62.62 38.72-.13-.21-62.62z"/><path d="m567.01 667.05l-38.72.13.22 62.62 38.72-.13-.22-62.62z"/><path d="m567.23 729.67l-38.72.13.21 62.62 38.72-.13-.21-62.62z"/><path d="m608.71 729.53l-38.72.13.22 62.62 23.61-.08 3.29-5.13 2.34-3.39 1.13-1.35 1.66-1.26 2.58-1.08 3.98-1.21.08-.63-.17-48.62z"/><path d="m608.5 666.91l-38.72.13.21 62.62 38.72-.13-.21-62.62z"/><path d="m649.99 666.77l-38.72.13.21 62.62 38.72-.13-.21-62.62z"/><path d="m650.2 729.39l-38.72.13.16 48.87 38.73-.19-.17-48.81z"/><path d="m691.68 729.25l-38.72.13.19 54.81 2.05 6.81 36.69-.16-.21-61.59z"/><path d="m691.47 666.62l-38.72.14.21 62.62 38.72-.13-.21-62.63z"/><path d="m691.26 604l-38.72.14.21 62.62 38.72-.14-.21-62.62z"/><path d="m649.77 604.14l-38.72.14.22 62.62 38.72-.13-.22-62.63z"/><path d="m608.29 604.29l-38.72.13.21 62.62 38.72-.13-.21-62.62z"/><path d="m566.8 604.43l-38.72.13.21 62.62 38.72-.13-.21-62.62z"/><path d="m525.32 604.57l-38.72.13.21 62.62 38.72-.13-.21-62.62z"/><path d="m483.85 610.29l-1.91-.02-2.61 9.13-1.32 1.44-3.3 1.93-17.06 8.54-12.43 6.95.1 29.2 38.72-.13-.19-57.04z"/><path d="m525.13 546.53l-16.69-.01-2.77 3.61-3 3.92-3.72 4.86-2.07 7.55-2.77 13.64-1.73 5.36-6.2 15.45-.01 1.03 39.14-.13-.18-55.28z"/><path d="m560.67 579.97l.3-2.59.15-1.42.61-2.69 1.02-3.42 1.32-3.41.54-1.7.56-.56 1.4-1.41 1.1-3.63-.08-1.85-.48-2.18-4.39-3.47-5.29-1.8-29.56.3.2 51.66 38.28-.13-.05-2.41-3.76-5.33-1.18-3.42-.17-1.96-.55-4.89-.08-1.68.11-2.01z"/><path d="m583.96 601.11l0 .5 24.32-.09.29-13.39-9.47-.06-2.02-5 .35-8.33.69-5.43-.43-10.43-6.72-5.69-21.36-.06-.18 7.83 1.7 1.86 6.39 1.6 5.32 1.8 2.56 1.77 3 3.24 4.89 8.55 2.32 6.77-.35 3.56-1.92 3.56-3.97 3.41-5.41 4.03z"/><path d="m649.91 560.05l-9.48-.15-20.3 8.21-1.71 1.4-.7 1.33.01 1.65.67 6.95-.26 1.76-.56 1.99-1.33 2.52-5.12 5.56-.31.98.22 9.27 6.66-.03.27-5.26-.07-1.93.1-1.41.35-1.07.86-1.31.53-.81.71-.53.8-.31 11.16.09.06 1.28.08 4.75-.33 4.79-.07 1.67 17.61-.06.15-41.33z"/><path d="m691.15 573.52l-.2-58.36-29.19.26 1.51 1.65.33.92 4.4 7.8 1.47 1.74 2.52 1.72 2.1 1.74 1.5 1.92.47 1.62.08 12.15.45 3.4.43 1.74 1.09 3.51 2.74 5.17 3.5.73 2.22 2.6.5 1.69-.05 1.72-1.63 3.5-2.13 2.02-14.98.91-.06-1.32-3.81-1.99-11.99-.02.11 31.03 38.72-.13-.1-27.72z"/><path d="m992.91 813.44l-1.36-1.28-6.71-8.99-5.6-6.97-5.84-6.48-4.93-.01.05 15.02 0 0 .11 32.71 0 0 0 0 0 0 0 0 0 0 0 0 0 0 .05 14.12 30.69-.09.33-1.5.3-2.29-.47-8.37-.93-6.77-.58-5.12-.4-3.65-.14-4.82-4.57-5.51z"/><path d="m994.39 866.5l1.84-2.27 2.54-3.24.54-6.78-30.62.11.09 27.93 14.1-.04 6.25-8.28 3.48-5.42 1.78-2.01z"/><path d="m965.92 854.33l-32.27.12 8.16 13.92 10.01 13.89 14.19-.09-.09-27.84z"/><path d="m965.68 784.3l-2.22-10.17-1.79-5.38-40.29.14.24 71.48 0 1.96 5.69 4.85 4.55 4.5 34.05-.11-.23-67.27z"/><path d="m921.38 768.89l-44.26.15.17 48.56 8.48 0 .11 1.7 6.72 2.06 1.9 1.23 3.1 1.75 5.92 3.52 8.29 4.93 6.96 5.48 2.85 2.1-.24-71.48z"/><path d="m874.36 769.05l-44.25.15.22 65.95 9.88-3.2 6.11-3.2 6.61-1.95 17.86-6.66 3.73-3.2-.16-47.89z"/><path d="m830.11 769.2l-44.25.15.28 82.83 21.07-.07 6.51-3.34 9.44-7.53 7.17-6.09-.22-65.95z"/><path d="m783.09 769.36l-44.25.15.28 82.83 24.65-.08 2.08-.26 5.23.23 12.29-.04-.28-82.83z"/><path d="m742.62 867.23l.74-2.94.99-2.23 1.11-3.66 3.37-1.71.94-.95.04-.69-35.53.15 2.57 18.82 1.33 8.77 2.08 6.91 2.03 3.56 7.89.04 3.05-1.07 2.38-2.23 4.37-13.71 1.89-7.27.75-1.79z"/><path d="m738.84 769.51l-44.25.15.16 46.57 5.02 3.65 4.33 5.01 7.46 12.68 2.02 7.32.63 7.53 24.91-.08-.28-82.83z"/><path d="m738.56 686.68l-44.25.15.28 82.83 44.25-.15-.28-82.83z"/><path d="m782.81 686.53l-44.25.15.28 82.83 44.25-.15-.28-82.83z"/><path d="m829.82 686.37l-44.25.15.29 82.83 44.25-.15-.29-82.83z"/><path d="m874.24 733.37l-28.01-.5.5 1.96.69 2.71-.74.65-14.01-.04-.6-.68-.57-1.86-.66-3.58.28-3.95.62-1.82 1.36-1.4 1.17-.29 3.93-.1-1.33-3.92-.64-2.92-.15-3 .23-8.59.48-4.39.77-2.95 1.58-1.25 1.86-3.03 2.38-1.92 3.91-2.87 1.27-1.09 3.04-.26 22.48.06 0-2.12-44.26.15.29 82.83 44.25-.15-.12-35.68z"/><path d="m921.13 698.06l-2.11-.39-2.23-.8-2.01-1.35-1.22-1.04-.78-1.67-.99-.96.27-2.26.35-1.82.56-1.68-36.13.12-.09 10.97.88 1.17 6.93 2.99 4.98 2.3 4.05 1.86 2.11 1.24 1.16.89 1.11 1.21 1.07 1.64.79 2.21.17.99-.11 1.73-1.18 3.34-1.26 2.38-6.29 8.44-2.05 2.02-6.03 3.91-.79.48-5.28-.02.11 33.08 44.26-.15-.25-70.83z"/><path d="m958.69 728.89l-.62-6.19-3.24-16.81-3.29-7.03-1.12-1.55-.35-.78-.32-1.52-.19-1.11-.24-2.02-.21-.66-5.02-5.43-2.12-1.61-4.13-2.96-10.75-9.24-3.45-3.55-2.62-2.1.05 15.41 4.12 5.63 2.07 2.39 1.29 2.11.69 1.12-.55 1.74-.7 1.01-1.43 1.25-2.92 1.1-2.51-.03.25 70.83 40.29-.14-.38-4.24-.64-7.5-.66-5.37-.53-10.47-.77-12.28z"/><path d="m908.16 634.97l1.67-3.89 4.97-10.08 4.54-10.54 1.82-5.04.89-2.2-45.49.15.28 82.84 36.13-.13-.25-.7-.11-1 .84-1.27 2.81-.46 1.61-.63 3.2-.28-.05-15.41-7.05-9.27-5.28-8.82-1.18-5.61-.07-2.16.16-2.49.56-3.01z"/><path d="m873.79 603.38l-44.25.15.28 82.84 44.26-.15-.29-82.84z"/><path d="m829.54 603.53l-44.25.15.28 82.84 44.25-.15-.28-82.84z"/><path d="m782.53 603.69l-44.26.15.29 82.84 44.25-.15-.28-82.84z"/><path d="m738.27 603.84l-44.25.15.29 82.84 44.25-.15-.29-82.84z"/><path d="m888.7 407.92l-1.98-4.79-2.7-4.63-2.72-3.41-4.03-5.65-1.44.01.15 45.5 20.52-.07-2.67-7.9-5.13-19.06z"/><path d="m872.99 383.63l-2.15-.95-11.88-11.67-7.84-.09-5.53-4.7-3.62-1.86-3.98-3.09 0 0-8.73.03-.29 73.81 44.25-.15-.23-51.33z"/><path d="m145.74 354.59l-22.24.08 7.74 17.11 3.59 7.07 5.47 5.61 5.41-.07.03-29.8z"/><path d="m145.74 354.59l-.04 38.54 9.07-.01 5.82-18.38 4.85-7.82 21.16-.07.31 7.94 2.55 1.18.96.84-.09-22.37-44.59.15z"/><path d="m190.33 354.44l.09 22.37.91.73 3.46 3.85 9.44 10.47 3.46 4.64 3.85 5.15 3.68 6.31 9.06 11.82 8.41 7.77 6.24-.07-2.17-17.62-.69-9.38.22-6.68-1.7-4.07-2.24-2.93-2.61-3.15-2.17-1.31-4.91-5.66-7.31-5.01-12.82-8.01-1.47-.83-4.22-4.49-2.95-3.91-3.56.01z"/><path d="m372.07 271.45l-3.25.01.32 7.55-.12 8.08.83 11.79.16 7.27-1.63 6-2.04 4.68-2.37 4.79-2.34 4.22-2.13 2.87-2.06 2.31-2.83 2.3-21.36 2.54-4.97 1.15-3.95 3.13-2.56 10.76 50.57.16-.27-79.61z"/><path d="m484.5 800.85l-21.21.08.94 11.25 2.53 10.49 4.98 10.52.73 3.52-5.24 24.16-3.42 18.69 12.86-.3 6.31-4.65 1.76-2.59-.24-71.17z"/><path d="m525.98 800.71l-38.72.13.24 69.91 19.5.13 6.23-5.34 4.39-12.4 1.79-10.75 4.69-5.82 2-.77-.12-35.09z"/><path d="m567.97 800.57l-39.22.13.12 35.12 10.89-.14 5.06-16.56 5.78-5.86 7.56-5.71 6.22-1.11 3.51-2.05.08-3.82z"/><path d="m656.45 793.17l-1.53 2.83.65 6.98-.87 3.49-4.58 2.83-13.73 5.23-7.84 2.4-1.75 2.61 14.17 24.42 9.15.43 36.84-27.68 5.23-.43 0-22.67-35.74-.44z"/></g></g></svg>